<svg id="svg" version="1.1" xmlns="http://www.w3.org/2000/svg" xmlns:xlink="http://www.w3.org/1999/xlink" width="400" height="398.69138495092693" viewBox="0, 0, 400,398.69138495092693"><g id="svgg"><path id="path0" d="M0.399 199.601 L 0.399 398.804 200.199 398.804 L 400.000 398.804 400.000 199.601 L 400.000 0.399 200.199 0.399 L 0.399 0.399 0.399 199.601 M303.629 76.072 C 304.565 97.182,304.774 103.549,305.110 121.236 C 305.316 132.094,305.648 145.643,305.849 151.346 C 306.257 162.945,306.391 162.375,303.204 162.627 C 301.936 162.727,300.706 162.962,300.471 163.148 C 299.772 163.704,292.179 164.720,291.916 164.293 C 291.787 164.084,291.454 162.252,291.175 160.222 C 290.897 158.192,290.501 155.454,290.294 154.138 C 290.087 152.822,289.614 149.501,289.243 146.760 C 288.871 144.018,288.442 141.685,288.289 141.574 C 288.135 141.464,287.879 140.657,287.720 139.780 C 287.561 138.903,287.207 137.737,286.933 137.188 C 286.659 136.640,286.309 135.429,286.154 134.497 C 285.999 133.564,285.731 132.802,285.560 132.802 C 285.388 132.802,285.128 131.904,284.983 130.808 C 284.837 129.711,284.545 128.814,284.333 128.814 C 284.121 128.814,283.948 128.497,283.948 128.110 C 283.948 127.723,283.603 126.763,283.182 125.977 C 282.761 125.191,282.208 123.776,281.954 122.832 C 281.700 121.888,281.237 120.861,280.926 120.550 C 280.614 120.238,280.359 119.727,280.359 119.413 C 280.359 119.100,280.188 118.843,279.978 118.843 C 279.769 118.843,279.480 118.215,279.336 117.448 C 279.192 116.680,278.951 116.052,278.802 116.052 C 278.652 116.052,277.999 115.158,277.351 114.066 C 276.702 112.973,276.051 112.076,275.904 112.072 C 275.757 112.067,275.516 111.513,275.368 110.840 C 275.220 110.168,274.863 109.527,274.575 109.416 C 274.287 109.305,273.843 108.713,273.589 108.100 C 273.336 107.487,272.691 106.752,272.157 106.466 C 271.623 106.181,271.186 105.818,271.186 105.660 C 271.186 105.407,270.062 104.063,267.398 101.131 C 266.959 100.649,265.748 99.650,264.706 98.913 C 263.664 98.175,262.812 97.423,262.812 97.240 C 262.812 97.058,262.549 96.909,262.227 96.909 C 261.906 96.909,261.451 96.550,261.216 96.112 C 260.982 95.673,260.527 95.314,260.205 95.314 C 259.884 95.314,259.621 95.156,259.621 94.964 C 259.621 94.771,259.096 94.396,258.453 94.130 C 257.811 93.863,257.195 93.410,257.085 93.122 C 256.974 92.833,256.298 92.469,255.583 92.312 C 254.868 92.155,254.035 91.779,253.733 91.477 C 253.431 91.175,252.837 90.927,252.414 90.927 C 251.991 90.927,251.645 90.762,251.645 90.560 C 251.645 90.358,251.119 90.077,250.476 89.936 C 249.833 89.795,249.097 89.427,248.841 89.118 C 248.584 88.808,247.764 88.441,247.019 88.301 C 246.273 88.161,245.663 87.898,245.663 87.717 C 245.663 87.535,244.855 87.266,243.868 87.118 C 242.881 86.970,242.074 86.711,242.074 86.544 C 242.074 86.376,240.593 86.020,238.784 85.752 C 236.974 85.483,234.596 84.997,233.500 84.672 C 232.403 84.346,229.032 83.980,226.008 83.858 L 220.511 83.636 220.667 185.487 C 220.784 261.843,220.941 287.887,221.295 289.531 C 221.554 290.738,221.963 293.071,222.204 294.716 C 222.444 296.361,222.778 297.797,222.944 297.906 C 223.111 298.016,223.456 298.824,223.712 299.701 C 223.967 300.578,224.524 301.834,224.950 302.493 C 225.376 303.151,225.982 304.227,226.296 304.885 C 226.611 305.543,227.540 306.620,228.361 307.278 C 229.182 307.936,230.170 308.778,230.557 309.150 C 230.944 309.521,232.033 310.051,232.978 310.327 C 233.923 310.603,234.786 310.952,234.895 311.103 C 235.113 311.402,236.422 311.812,241.874 313.290 C 244.976 314.131,246.683 314.298,254.437 314.518 C 260.265 314.684,263.512 314.927,263.703 315.213 C 263.864 315.455,263.999 318.838,264.002 322.732 L 264.008 329.811 200.000 329.811 L 135.992 329.811 135.992 322.803 C 135.992 313.999,134.982 314.849,145.852 314.505 C 151.279 314.333,155.440 314.014,156.613 313.681 C 157.664 313.381,159.377 313.019,160.419 312.875 C 161.461 312.731,162.313 312.460,162.313 312.274 C 162.313 312.087,163.031 311.813,163.908 311.665 C 164.786 311.517,165.503 311.246,165.503 311.063 C 165.503 310.881,166.027 310.616,166.666 310.476 C 167.306 310.336,168.351 309.738,168.989 309.148 C 169.626 308.558,170.808 307.508,171.614 306.814 C 172.421 306.120,173.081 305.445,173.081 305.314 C 173.081 305.183,173.677 304.226,174.406 303.186 C 175.837 301.145,176.670 299.118,176.670 297.681 C 176.670 297.183,176.880 296.706,177.137 296.621 C 177.403 296.532,177.684 295.355,177.787 293.895 C 177.887 292.482,178.170 291.198,178.416 291.041 C 178.744 290.833,178.892 263.151,178.972 187.201 L 179.080 83.646 173.588 83.862 C 170.511 83.983,167.306 84.331,166.301 84.654 C 165.314 84.971,163.026 85.457,161.216 85.735 C 159.407 86.012,157.926 86.380,157.926 86.552 C 157.926 86.724,157.029 86.988,155.932 87.139 C 154.835 87.289,153.938 87.567,153.938 87.756 C 153.938 87.945,153.310 88.217,152.542 88.361 C 151.775 88.505,151.147 88.771,151.147 88.952 C 151.147 89.133,150.518 89.508,149.751 89.785 C 148.983 90.063,148.355 90.433,148.355 90.609 C 148.355 90.784,148.009 90.927,147.586 90.927 C 147.163 90.927,146.578 91.166,146.286 91.458 C 145.994 91.750,145.259 92.114,144.652 92.266 C 144.046 92.418,142.782 93.121,141.844 93.829 C 140.906 94.536,139.629 95.474,139.005 95.912 C 138.381 96.351,137.253 97.293,136.498 98.006 C 135.744 98.719,134.989 99.302,134.823 99.302 C 134.313 99.302,128.814 105.017,128.814 105.546 C 128.814 105.735,128.455 106.114,128.016 106.388 C 127.577 106.662,127.218 107.070,127.218 107.295 C 127.218 107.520,126.680 108.230,126.022 108.873 C 125.364 109.517,124.826 110.216,124.826 110.427 C 124.826 110.638,124.601 111.056,124.327 111.356 C 123.840 111.888,122.744 113.760,121.872 115.550 C 121.632 116.042,121.308 116.446,121.152 116.448 C 120.996 116.449,120.663 117.213,120.413 118.146 C 120.162 119.078,119.832 119.930,119.678 120.040 C 119.225 120.363,117.647 123.604,117.647 124.211 C 117.647 124.518,117.405 125.010,117.110 125.306 C 116.815 125.601,116.448 126.511,116.294 127.328 C 116.141 128.145,115.865 128.814,115.680 128.814 C 115.496 128.814,115.218 129.666,115.063 130.708 C 114.908 131.750,114.622 132.795,114.429 133.031 C 114.235 133.266,113.799 134.778,113.460 136.391 C 113.120 138.003,112.688 139.515,112.498 139.751 C 112.308 139.987,112.025 141.301,111.870 142.672 C 111.714 144.043,111.446 145.165,111.274 145.165 C 111.102 145.165,110.831 146.555,110.673 148.255 C 110.514 149.955,110.243 151.436,110.070 151.545 C 109.898 151.655,109.568 153.629,109.337 155.932 C 109.107 158.235,108.809 160.748,108.675 161.515 C 108.099 164.818,108.108 164.801,107.044 164.533 C 106.495 164.396,104.672 164.109,102.993 163.896 C 101.314 163.683,99.760 163.329,99.541 163.110 C 99.322 162.891,98.573 162.712,97.876 162.712 C 97.180 162.712,96.049 162.600,95.364 162.463 L 94.118 162.213 94.118 150.197 C 94.118 143.588,94.289 137.582,94.499 136.851 C 94.709 136.120,94.981 127.597,95.105 117.910 C 95.229 108.224,95.505 97.607,95.719 94.317 C 95.933 91.027,96.219 84.252,96.354 79.262 L 96.599 70.189 199.984 70.189 L 303.369 70.189 303.629 76.072 M147.956 215.903 C 147.956 237.411,147.861 242.055,147.413 242.427 C 147.019 242.754,139.672 242.849,120.594 242.775 L 94.317 242.672 94.215 216.251 L 94.112 189.831 121.034 189.831 L 147.956 189.831 147.956 215.903 M306.281 216.351 L 306.281 242.871 280.259 242.859 C 259.253 242.848,254.103 242.744,253.539 242.316 C 252.822 241.772,252.400 190.804,253.107 190.096 C 253.254 189.950,265.278 189.831,279.827 189.831 L 306.281 189.831 306.281 216.351 " stroke="none" fill="#e4047c" fill-rule="evenodd"></path><path id="path1" d="M96.859 78.066 C 96.832 81.959,96.666 90.618,96.492 97.308 C 95.518 134.609,94.943 153.806,94.689 157.567 L 94.403 161.794 95.955 162.037 C 96.809 162.171,98.764 162.404,100.299 162.555 C 101.834 162.707,103.180 162.964,103.290 163.126 C 103.400 163.289,104.477 163.486,105.683 163.565 L 107.876 163.709 108.148 160.718 C 108.554 156.246,109.558 149.662,110.246 146.959 C 110.581 145.643,110.858 143.983,110.861 143.270 C 110.865 142.557,111.038 141.974,111.246 141.974 C 111.455 141.974,111.747 140.897,111.896 139.581 C 112.045 138.265,112.294 137.188,112.450 137.188 C 112.606 137.188,112.958 135.933,113.232 134.398 C 113.507 132.863,113.876 131.518,114.054 131.408 C 114.231 131.299,114.592 130.311,114.855 129.214 C 115.118 128.116,115.487 127.218,115.675 127.218 C 115.862 127.218,116.134 126.590,116.278 125.823 C 116.422 125.055,116.699 124.427,116.894 124.427 C 117.089 124.427,117.248 124.106,117.248 123.713 C 117.248 123.321,117.607 122.296,118.046 121.436 C 118.485 120.575,118.843 119.640,118.843 119.357 C 118.843 119.075,119.008 118.843,119.209 118.843 C 119.410 118.843,119.895 117.991,120.286 116.949 C 120.676 115.907,121.095 114.965,121.216 114.855 C 121.526 114.574,122.350 113.238,122.934 112.069 C 123.207 111.524,123.699 110.774,124.028 110.403 C 124.846 109.480,125.234 108.973,126.799 106.780 C 127.543 105.738,128.300 104.885,128.482 104.885 C 128.665 104.885,128.814 104.701,128.814 104.477 C 128.814 103.798,136.521 96.597,138.612 95.321 C 139.145 94.996,139.581 94.593,139.581 94.424 C 139.581 94.256,139.838 94.118,140.151 94.118 C 140.464 94.118,140.958 93.893,141.248 93.619 C 141.882 93.019,144.545 91.513,146.062 90.896 C 146.665 90.651,147.159 90.303,147.159 90.122 C 147.159 89.942,147.697 89.676,148.355 89.531 C 149.013 89.387,149.551 89.119,149.551 88.937 C 149.551 88.754,150.269 88.483,151.147 88.335 C 152.024 88.187,152.742 87.916,152.742 87.733 C 152.742 87.551,153.322 87.274,154.032 87.118 C 154.742 86.962,155.684 86.609,156.126 86.334 C 156.568 86.059,158.410 85.612,160.219 85.341 C 162.029 85.070,163.509 84.707,163.509 84.535 C 163.509 84.363,165.214 84.094,167.298 83.938 C 169.382 83.782,171.087 83.521,171.087 83.360 C 171.087 82.971,178.734 82.451,179.593 82.781 C 180.376 83.081,180.648 280.243,179.870 283.643 C 179.656 284.579,179.320 287.228,179.122 289.531 C 178.785 293.475,177.791 298.014,177.071 298.903 C 176.893 299.123,176.538 300.086,176.282 301.044 C 175.787 302.897,175.604 303.187,173.579 305.333 C 172.866 306.088,172.280 306.835,172.276 306.992 C 172.266 307.419,170.437 309.073,169.976 309.073 C 169.757 309.073,169.480 309.325,169.362 309.633 C 169.243 309.942,168.596 310.315,167.923 310.463 C 167.250 310.610,166.700 310.888,166.700 311.080 C 166.700 311.584,163.262 313.028,161.353 313.326 C 160.455 313.466,159.608 313.753,159.470 313.963 C 159.333 314.174,156.860 314.442,153.975 314.559 C 151.090 314.676,148.635 314.925,148.519 315.113 C 148.403 315.300,145.806 315.454,142.748 315.454 L 137.188 315.454 137.188 322.433 L 137.188 329.412 200.209 329.412 L 263.229 329.412 263.120 322.532 L 263.011 315.653 256.431 315.554 C 252.812 315.499,249.492 315.289,249.053 315.086 C 248.614 314.884,246.655 314.621,244.699 314.502 C 242.742 314.384,241.038 314.125,240.910 313.928 C 240.782 313.731,239.832 313.446,238.797 313.293 C 237.763 313.141,235.731 312.398,234.282 311.643 C 232.833 310.887,231.385 310.269,231.065 310.269 C 230.745 310.269,230.383 310.007,230.260 309.686 C 230.137 309.366,229.675 308.989,229.234 308.849 C 228.278 308.545,226.150 306.296,226.133 305.571 C 226.127 305.290,225.852 304.956,225.523 304.830 C 225.194 304.704,224.925 304.363,224.925 304.074 C 224.925 303.784,224.684 303.305,224.388 303.010 C 224.093 302.714,223.728 301.817,223.578 301.016 C 223.428 300.215,223.173 299.502,223.012 299.431 C 222.578 299.240,221.044 293.392,220.467 289.731 C 220.073 287.227,219.962 264.610,219.952 184.646 L 219.940 82.752 223.927 82.887 C 226.120 82.962,228.004 83.160,228.114 83.327 C 228.225 83.494,230.015 83.757,232.093 83.910 C 234.171 84.064,235.966 84.325,236.081 84.490 C 236.197 84.656,237.817 85.032,239.681 85.326 C 241.545 85.620,243.696 86.193,244.461 86.599 C 245.225 87.006,246.167 87.338,246.554 87.338 C 246.942 87.338,247.258 87.497,247.258 87.692 C 247.258 87.887,247.886 88.165,248.654 88.309 C 249.422 88.453,250.050 88.722,250.050 88.907 C 250.050 89.092,250.678 89.361,251.446 89.505 C 252.213 89.649,252.841 89.919,252.841 90.104 C 252.841 90.290,253.290 90.555,253.838 90.692 C 254.387 90.830,254.835 91.091,254.835 91.274 C 254.835 91.456,255.643 91.938,256.630 92.345 C 257.617 92.752,258.425 93.208,258.425 93.359 C 258.425 93.509,258.854 93.740,259.379 93.872 C 259.903 94.003,261.025 94.757,261.871 95.546 C 262.717 96.334,263.967 97.502,264.649 98.141 C 265.331 98.780,266.060 99.302,266.269 99.302 C 266.805 99.302,268.794 101.440,268.794 102.016 C 268.794 102.278,269.063 102.493,269.392 102.493 C 269.721 102.493,269.990 102.762,269.990 103.091 C 269.990 103.420,270.259 103.689,270.588 103.689 C 270.917 103.689,271.186 103.874,271.186 104.101 C 271.186 104.328,271.725 105.040,272.383 105.683 C 273.041 106.326,273.579 107.029,273.579 107.245 C 273.579 107.461,273.804 107.781,274.079 107.956 C 274.632 108.309,277.168 112.323,277.168 112.845 C 277.168 113.027,277.438 113.278,277.767 113.404 C 278.096 113.531,278.365 113.909,278.365 114.245 C 278.365 114.581,278.530 114.855,278.732 114.855 C 278.934 114.855,279.217 115.394,279.362 116.052 C 279.506 116.710,279.776 117.248,279.961 117.248 C 280.146 117.248,280.504 117.876,280.758 118.644 C 281.011 119.412,281.355 120.040,281.523 120.040 C 281.690 120.040,282.064 121.027,282.353 122.233 C 282.642 123.440,283.030 124.427,283.214 124.427 C 283.399 124.427,283.549 124.743,283.549 125.131 C 283.549 125.518,283.908 126.504,284.347 127.323 C 284.786 128.141,285.146 129.036,285.147 129.311 C 285.148 129.586,285.411 130.312,285.730 130.924 C 286.050 131.537,286.428 132.658,286.570 133.417 C 286.712 134.175,286.970 134.796,287.144 134.796 C 287.317 134.796,287.584 135.872,287.737 137.188 C 287.890 138.504,288.176 139.581,288.374 139.581 C 288.572 139.581,288.736 140.075,288.738 140.678 C 288.740 141.281,289.113 143.480,289.567 145.563 C 290.021 147.647,290.561 150.877,290.768 152.742 C 290.975 154.606,291.320 156.443,291.534 156.824 C 291.749 157.205,291.927 158.551,291.930 159.815 C 291.939 163.708,292.066 163.900,294.457 163.624 C 295.586 163.494,296.600 163.266,296.710 163.118 C 296.820 162.969,298.767 162.649,301.037 162.407 C 303.307 162.165,305.254 161.878,305.363 161.769 C 305.472 161.660,305.364 157.027,305.124 151.474 C 304.530 137.747,303.245 89.541,303.141 77.069 L 303.091 70.987 200.000 70.987 L 96.909 70.987 96.859 78.066 M94.915 216.152 L 94.915 242.074 120.837 242.074 L 146.760 242.074 146.760 216.152 L 146.760 190.229 120.837 190.229 L 94.915 190.229 94.915 216.152 M254.038 216.152 L 254.038 242.074 279.960 242.074 L 305.882 242.074 305.882 216.152 L 305.882 190.229 279.960 190.229 L 254.038 190.229 254.038 216.152 " stroke="none" fill="#fcfbfb" fill-rule="evenodd"></path><path id="path2" d="M96.909 70.588 C 96.909 70.853,131.539 70.987,200.000 70.987 C 268.461 70.987,303.091 70.853,303.091 70.588 C 303.091 70.323,268.461 70.189,200.000 70.189 C 131.539 70.189,96.909 70.323,96.909 70.588 M303.253 79.761 C 303.253 83.380,303.314 84.860,303.387 83.051 C 303.461 81.241,303.461 78.280,303.387 76.471 C 303.314 74.661,303.253 76.142,303.253 79.761 M96.674 81.356 C 96.674 85.194,96.734 86.765,96.807 84.845 C 96.881 82.926,96.881 79.786,96.807 77.866 C 96.734 75.947,96.674 77.517,96.674 81.356 M177.578 82.846 L 179.483 82.996 179.373 186.363 C 179.310 245.375,179.409 288.362,179.604 286.540 C 180.199 280.991,180.354 83.257,179.763 82.883 C 179.488 82.708,178.455 82.594,177.468 82.630 L 175.673 82.696 177.578 82.846 M220.007 82.818 C 219.860 82.964,219.744 83.278,219.747 83.516 C 219.751 83.793,219.861 83.779,220.053 83.477 C 220.217 83.218,221.157 82.935,222.140 82.849 L 223.928 82.692 222.100 82.622 C 221.095 82.584,220.153 82.672,220.007 82.818 M171.087 83.350 C 171.087 83.569,171.894 83.749,172.881 83.749 C 173.868 83.749,174.676 83.569,174.676 83.350 C 174.676 83.131,173.868 82.951,172.881 82.951 C 171.894 82.951,171.087 83.131,171.087 83.350 M225.324 83.350 C 225.324 83.569,225.952 83.749,226.720 83.749 C 227.488 83.749,228.116 83.569,228.116 83.350 C 228.116 83.131,227.488 82.951,226.720 82.951 C 225.952 82.951,225.324 83.131,225.324 83.350 M163.509 84.546 C 163.509 84.766,163.768 84.945,164.084 84.945 C 164.400 84.945,164.770 84.766,164.905 84.546 C 165.041 84.327,164.782 84.148,164.331 84.148 C 163.879 84.148,163.509 84.327,163.509 84.546 M156.108 86.328 C 155.408 86.858,155.400 86.915,156.032 86.926 C 156.416 86.933,156.730 86.772,156.730 86.568 C 156.730 86.364,157.134 86.119,157.627 86.024 C 158.444 85.867,158.451 85.847,157.703 85.797 C 157.252 85.767,156.534 86.006,156.108 86.328 M242.618 86.343 C 244.076 87.104,244.905 87.094,243.892 86.328 C 243.466 86.006,242.748 85.744,242.297 85.745 C 241.610 85.747,241.662 85.845,242.618 86.343 M149.551 88.890 C 149.551 89.086,149.081 89.364,148.506 89.508 C 147.931 89.652,147.172 90.059,146.818 90.413 C 146.124 91.107,146.136 91.104,148.654 89.953 C 150.234 89.231,150.870 88.534,149.950 88.534 C 149.731 88.534,149.551 88.694,149.551 88.890 M252.323 90.303 C 253.464 90.872,254.506 91.515,254.640 91.731 C 254.773 91.947,255.079 92.124,255.319 92.124 C 255.559 92.124,255.341 91.765,254.835 91.326 C 254.330 90.887,253.689 90.528,253.412 90.528 C 253.135 90.528,252.848 90.362,252.775 90.159 C 252.702 89.956,252.104 89.673,251.446 89.529 C 250.604 89.346,250.864 89.575,252.323 90.303 M144.766 91.525 C 144.489 91.859,144.446 92.124,144.668 92.124 C 144.887 92.124,145.290 91.854,145.563 91.525 C 145.840 91.192,145.883 90.927,145.661 90.927 C 145.442 90.927,145.039 91.196,144.766 91.525 M303.763 101.894 C 303.875 107.159,304.105 114.965,304.273 119.242 C 304.503 125.073,304.531 123.726,304.383 113.858 C 304.275 106.620,304.046 98.814,303.873 96.510 C 303.668 93.772,303.630 95.634,303.763 101.894 M260.083 94.670 C 260.885 95.232,261.623 95.921,261.723 96.201 C 261.823 96.481,262.004 96.620,262.125 96.510 C 262.502 96.169,260.584 94.223,259.580 93.928 C 258.863 93.718,258.989 93.903,260.083 94.670 M139.581 94.430 C 139.581 94.603,139.088 95.040,138.485 95.402 C 137.067 96.254,134.632 98.504,135.128 98.504 C 135.338 98.504,135.932 98.059,136.449 97.514 C 136.965 96.970,137.511 96.521,137.662 96.517 C 138.169 96.505,140.563 94.118,140.069 94.118 C 139.801 94.118,139.581 94.258,139.581 94.430 M96.014 99.501 C 95.572 105.442,95.682 113.014,96.168 110.080 C 96.367 108.878,96.481 105.110,96.420 101.705 L 96.311 95.513 96.014 99.501 M262.812 96.694 C 262.812 97.009,264.538 98.504,264.901 98.504 C 265.091 98.504,264.761 98.056,264.170 97.507 C 263.100 96.516,262.812 96.343,262.812 96.694 M132.866 100.100 C 132.145 100.758,131.713 101.296,131.905 101.296 C 132.097 101.296,132.769 100.758,133.400 100.100 C 134.030 99.442,134.463 98.903,134.361 98.903 C 134.259 98.903,133.586 99.442,132.866 100.100 M265.407 99.307 C 265.541 99.523,265.825 99.701,266.039 99.701 C 266.253 99.701,266.960 100.245,267.611 100.911 C 268.261 101.577,268.794 101.969,268.794 101.783 C 268.794 101.310,266.748 99.471,265.882 99.166 C 265.454 99.015,265.262 99.072,265.407 99.307 M130.903 101.961 C 130.626 102.072,130.212 102.551,129.983 103.026 C 129.627 103.765,129.644 103.803,130.106 103.290 C 130.402 102.961,130.897 102.468,131.205 102.193 C 131.792 101.671,131.734 101.626,130.903 101.961 M270.639 104.187 C 271.147 105.038,272.962 106.879,273.293 106.879 C 273.465 106.879,273.062 106.347,272.397 105.696 C 271.731 105.046,271.186 104.328,271.186 104.101 C 271.186 103.874,270.996 103.689,270.764 103.689 C 270.532 103.689,270.476 103.913,270.639 104.187 M126.854 106.780 C 125.664 108.517,125.838 108.371,128.044 105.783 C 128.464 105.289,128.660 104.885,128.480 104.885 C 128.299 104.885,127.567 105.738,126.854 106.780 M273.830 108.265 C 273.945 108.566,274.286 108.906,274.587 109.022 C 274.932 109.154,275.056 109.030,274.924 108.685 C 274.808 108.384,274.468 108.043,274.167 107.928 C 273.822 107.795,273.697 107.920,273.830 108.265 M124.028 110.441 C 123.699 110.791,123.207 111.524,122.934 112.069 C 122.203 113.533,121.488 114.618,121.037 114.949 C 120.792 115.129,120.835 115.244,121.149 115.248 C 121.430 115.251,121.776 114.940,121.918 114.556 C 122.059 114.172,122.280 113.769,122.407 113.659 C 122.827 113.299,124.888 109.999,124.756 109.900 C 124.684 109.847,124.357 110.091,124.028 110.441 M275.378 110.408 C 275.529 110.923,275.993 111.686,276.410 112.103 C 277.468 113.161,277.355 112.687,276.136 110.946 C 275.391 109.883,275.180 109.733,275.378 110.408 M277.397 113.565 C 277.632 113.727,277.941 114.172,278.082 114.556 C 278.224 114.940,278.570 115.251,278.851 115.248 C 279.191 115.244,279.219 115.144,278.934 114.949 C 278.699 114.788,278.390 114.342,278.249 113.958 C 278.107 113.574,277.761 113.263,277.480 113.266 C 277.140 113.270,277.112 113.370,277.397 113.565 M95.480 123.230 C 95.480 127.288,95.539 128.948,95.611 126.919 C 95.684 124.890,95.684 121.570,95.611 119.541 C 95.539 117.512,95.480 119.172,95.480 123.230 M119.342 118.667 C 119.068 118.965,118.843 119.402,118.843 119.638 C 118.843 119.875,118.550 120.516,118.191 121.063 C 117.833 121.611,117.643 122.163,117.770 122.290 C 117.897 122.417,118.459 121.573,119.018 120.414 C 120.087 118.198,120.166 117.773,119.342 118.667 M283.974 127.418 C 283.974 127.637,284.237 128.165,284.559 128.591 C 284.881 129.016,285.145 129.185,285.145 128.966 C 285.145 128.747,284.881 128.219,284.559 127.793 C 284.237 127.367,283.974 127.198,283.974 127.418 M114.853 129.113 C 114.852 129.497,114.589 130.312,114.270 130.924 C 113.950 131.537,113.594 132.703,113.479 133.516 L 113.269 134.995 113.700 133.599 C 113.936 132.832,114.277 132.024,114.457 131.805 C 114.876 131.293,115.422 128.415,115.099 128.415 C 114.965 128.415,114.854 128.729,114.853 129.113 M285.160 130.608 C 285.165 131.047,285.433 131.754,285.755 132.180 C 286.516 133.185,286.510 132.418,285.745 130.953 C 285.269 130.039,285.152 129.970,285.160 130.608 M304.928 142.971 C 305.020 149.113,305.206 155.872,305.342 157.991 C 305.580 161.705,305.558 161.852,304.732 162.032 C 303.924 162.209,303.927 162.217,304.780 162.167 C 305.843 162.104,305.927 157.500,305.168 140.778 L 304.760 131.805 304.928 142.971 M286.602 134.584 C 286.792 136.060,287.537 136.927,287.537 135.673 C 287.537 135.190,287.370 134.796,287.166 134.796 C 286.962 134.796,286.717 134.482,286.622 134.098 C 286.527 133.714,286.517 133.933,286.602 134.584 M94.707 141.874 C 94.525 146.426,94.362 152.841,94.346 156.132 L 94.317 162.114 95.314 162.152 C 96.289 162.190,96.290 162.187,95.360 162.021 C 94.418 161.852,94.412 161.820,94.661 158.194 C 95.020 152.982,95.473 133.599,95.236 133.599 C 95.127 133.599,94.889 137.323,94.707 141.874 M112.916 136.058 C 112.886 136.643,112.661 137.189,112.417 137.270 C 112.173 137.352,112.055 137.770,112.155 138.201 C 112.411 139.299,113.363 136.980,113.133 135.819 C 113.007 135.179,112.958 135.233,112.916 136.058 M287.936 140.379 C 287.936 140.818,288.116 141.176,288.335 141.176 C 288.554 141.176,288.734 140.818,288.734 140.379 C 288.734 139.940,288.554 139.581,288.335 139.581 C 288.116 139.581,287.936 139.940,287.936 140.379 M110.867 142.971 C 110.867 143.519,111.047 143.968,111.266 143.968 C 111.486 143.968,111.665 143.519,111.665 142.971 C 111.665 142.423,111.486 141.974,111.266 141.974 C 111.047 141.974,110.867 142.423,110.867 142.971 M289.572 147.976 C 289.550 148.755,289.698 149.562,289.902 149.771 C 290.105 149.979,290.350 150.688,290.445 151.346 C 290.539 152.004,290.570 151.825,290.512 150.947 C 290.454 150.070,290.228 148.724,290.010 147.956 L 289.613 146.560 289.572 147.976 M109.771 148.873 C 109.360 150.427,109.066 153.839,109.455 152.542 C 109.520 152.323,109.793 151.416,110.059 150.527 C 110.326 149.638,110.483 148.477,110.407 147.948 C 110.301 147.206,110.156 147.417,109.771 148.873 M108.982 155.135 C 108.982 156.122,109.060 156.525,109.155 156.032 C 109.250 155.538,109.250 154.731,109.155 154.237 C 109.060 153.744,108.982 154.148,108.982 155.135 M290.820 154.736 C 290.820 155.503,290.902 155.818,291.003 155.434 C 291.103 155.050,291.103 154.422,291.003 154.038 C 290.902 153.654,290.820 153.968,290.820 154.736 M291.155 157.404 C 291.213 158.916,291.866 159.834,291.896 158.448 C 291.912 157.748,291.745 157.065,291.525 156.929 C 291.306 156.794,291.139 157.007,291.155 157.404 M108.375 157.660 C 107.882 158.863,107.999 160.692,108.512 159.810 C 108.739 159.421,108.868 158.613,108.799 158.016 C 108.695 157.108,108.625 157.050,108.375 157.660 M300.798 162.588 C 301.181 162.688,301.810 162.688,302.193 162.588 C 302.577 162.488,302.263 162.406,301.496 162.406 C 300.728 162.406,300.414 162.488,300.798 162.588 M101.097 163.111 C 101.232 163.330,101.781 163.509,102.317 163.509 C 102.852 163.509,103.290 163.330,103.290 163.111 C 103.290 162.891,102.741 162.712,102.070 162.712 C 101.358 162.712,100.953 162.878,101.097 163.111 M296.710 163.111 C 296.710 163.330,297.148 163.509,297.683 163.509 C 298.219 163.509,298.768 163.330,298.903 163.111 C 299.047 162.878,298.642 162.712,297.930 162.712 C 297.259 162.712,296.710 162.891,296.710 163.111 M104.391 163.792 C 104.888 163.887,105.605 163.883,105.987 163.783 C 106.368 163.684,105.962 163.606,105.085 163.610 C 104.207 163.614,103.895 163.696,104.391 163.792 M294.222 163.792 C 294.718 163.887,295.436 163.883,295.817 163.783 C 296.199 163.684,295.793 163.606,294.915 163.610 C 294.038 163.614,293.726 163.696,294.222 163.792 M94.384 190.096 C 93.935 190.545,94.067 242.074,94.516 242.074 C 94.778 242.074,94.915 233.167,94.915 216.152 L 94.915 190.229 120.835 190.229 L 146.754 190.229 146.859 216.251 L 146.965 242.273 147.062 216.052 L 147.159 189.831 120.904 189.831 C 106.464 189.831,94.530 189.950,94.384 190.096 M253.822 190.329 C 253.718 190.603,253.680 202.403,253.738 216.550 L 253.844 242.273 253.941 216.251 L 254.038 190.229 279.957 190.229 L 305.877 190.229 305.982 216.251 L 306.088 242.273 306.184 216.052 L 306.281 189.831 280.147 189.831 C 259.607 189.831,253.972 189.937,253.822 190.329 M219.943 281.954 C 220.019 284.696,220.249 287.836,220.456 288.933 C 220.998 291.816,220.960 289.786,220.344 282.951 L 219.805 276.969 219.943 281.954 M178.365 292.435 C 177.652 295.143,177.754 296.541,178.508 294.390 C 178.839 293.444,179.055 292.190,178.987 291.605 C 178.885 290.723,178.778 290.866,178.365 292.435 M221.003 292.124 C 220.973 292.782,221.305 294.397,221.739 295.713 L 222.530 298.106 222.281 296.112 C 222.145 295.015,221.892 293.938,221.720 293.719 C 221.548 293.500,221.328 292.782,221.232 292.124 L 221.057 290.927 221.003 292.124 M174.817 303.355 C 174.421 303.977,173.868 304.630,173.589 304.805 C 173.309 304.981,173.081 305.321,173.081 305.562 C 173.081 305.939,173.990 305.047,175.525 303.164 C 175.760 302.876,175.859 302.546,175.745 302.432 C 175.631 302.317,175.213 302.733,174.817 303.355 M224.782 303.689 C 224.938 304.128,225.302 304.630,225.593 304.805 C 225.884 304.981,226.127 305.340,226.133 305.603 C 226.149 306.226,228.504 308.818,228.792 308.529 C 228.914 308.407,228.452 307.836,227.767 307.259 C 227.081 306.682,226.514 306.002,226.506 305.747 C 226.498 305.493,226.044 304.746,225.496 304.088 C 224.813 303.267,224.589 303.142,224.782 303.689 M171.087 307.876 C 170.648 308.315,170.116 308.674,169.904 308.674 C 169.693 308.674,169.324 309.078,169.085 309.571 C 168.692 310.381,168.705 310.401,169.214 309.771 C 169.525 309.387,169.939 309.070,170.134 309.066 C 170.527 309.058,172.511 307.079,172.126 307.079 C 171.993 307.079,171.525 307.438,171.087 307.876 M166.301 311.067 C 166.301 311.286,166.077 311.472,165.803 311.479 C 165.147 311.497,161.979 313.030,162.561 313.047 C 163.337 313.071,166.700 311.446,166.700 311.048 C 166.700 310.839,166.610 310.668,166.500 310.668 C 166.391 310.668,166.301 310.847,166.301 311.067 M235.907 312.380 C 236.353 312.713,237.609 313.094,238.698 313.226 L 240.678 313.467 238.883 312.903 C 235.093 311.712,234.988 311.694,235.907 312.380 M158.126 313.858 C 157.990 314.078,158.249 314.257,158.700 314.257 C 159.152 314.257,159.521 314.078,159.521 313.858 C 159.521 313.639,159.263 313.460,158.947 313.460 C 158.631 313.460,158.261 313.639,158.126 313.858 M240.877 313.858 C 240.877 314.078,241.371 314.245,241.974 314.229 C 242.946 314.204,242.980 314.162,242.273 313.858 C 241.184 313.390,240.877 313.390,240.877 313.858 M154.237 314.539 C 154.731 314.634,155.538 314.634,156.032 314.539 C 156.525 314.444,156.122 314.366,155.135 314.366 C 154.148 314.366,153.744 314.444,154.237 314.539 M243.973 314.539 C 244.469 314.635,245.187 314.631,245.568 314.531 C 245.949 314.431,245.543 314.353,244.666 314.358 C 243.789 314.362,243.477 314.444,243.973 314.539 M144.167 315.055 C 144.015 315.302,144.754 315.454,146.114 315.454 C 147.321 315.454,148.419 315.274,148.554 315.055 C 148.707 314.807,147.968 314.656,146.607 314.656 C 145.401 314.656,144.303 314.835,144.167 315.055 M249.053 315.055 C 249.188 315.274,250.376 315.454,251.692 315.454 C 253.186 315.454,253.992 315.304,253.838 315.055 C 253.703 314.835,252.515 314.656,251.199 314.656 C 249.706 314.656,248.899 314.806,249.053 315.055 M136.880 322.532 L 136.790 329.811 200.199 329.811 L 263.609 329.811 263.609 322.632 C 263.609 318.684,263.475 315.453,263.310 315.453 C 263.146 315.453,263.064 318.593,263.128 322.432 L 263.246 329.412 200.226 329.412 L 137.207 329.412 137.088 322.333 L 136.969 315.254 136.880 322.532 " stroke="none" fill="#f4a5cf" fill-rule="evenodd"></path><path id="path3" d="M0.099 199.501 L 0.199 399.003 0.299 199.701 L 0.400 0.400 200.299 0.299 L 400.199 0.199 200.100 0.099 L 0.000 0.000 0.099 199.501 " stroke="none" fill="#242424" fill-rule="evenodd"></path><path id="path4" d="M96.634 72.383 C 96.636 73.699,96.711 74.189,96.799 73.472 C 96.888 72.756,96.886 71.679,96.795 71.080 C 96.704 70.480,96.632 71.067,96.634 72.383 M303.199 71.785 C 303.199 72.772,303.277 73.175,303.372 72.682 C 303.467 72.188,303.467 71.381,303.372 70.887 C 303.277 70.394,303.199 70.798,303.199 71.785 M303.775 87.737 C 303.889 93.549,304.120 101.356,304.289 105.085 C 304.508 109.944,304.538 108.419,304.395 99.701 C 304.284 93.011,304.053 85.204,303.881 82.353 C 303.669 78.828,303.635 80.552,303.775 87.737 M95.953 86.441 C 95.824 90.553,95.655 98.853,95.577 104.885 C 95.448 114.934,95.461 115.201,95.730 108.076 C 96.289 93.302,96.622 78.963,96.405 78.963 C 96.286 78.963,96.082 82.328,95.953 86.441 M174.676 83.350 C 174.676 83.569,175.663 83.749,176.869 83.749 L 179.061 83.749 179.163 183.948 L 179.264 284.148 179.363 183.549 L 179.462 82.951 177.069 82.951 C 175.739 82.951,174.676 83.128,174.676 83.350 M219.933 83.848 C 219.574 85.307,220.029 281.893,220.399 284.945 C 220.589 286.510,220.688 242.926,220.624 185.743 L 220.511 83.749 222.917 83.749 C 224.256 83.749,225.324 83.572,225.324 83.350 C 225.324 82.413,220.170 82.890,219.933 83.848 M164.905 84.546 C 164.770 84.766,164.176 84.970,163.586 84.999 C 162.816 85.038,162.738 85.097,163.310 85.208 C 163.749 85.293,164.915 85.107,165.902 84.794 C 167.616 84.252,167.640 84.225,166.424 84.187 C 165.724 84.165,165.041 84.327,164.905 84.546 M233.836 84.796 C 234.898 85.123,236.154 85.314,236.627 85.222 C 237.336 85.083,237.298 85.044,236.414 84.999 C 235.824 84.970,235.230 84.766,235.095 84.546 C 234.959 84.327,234.186 84.160,233.376 84.175 L 231.904 84.203 233.836 84.796 M156.730 86.540 C 156.730 86.760,156.999 86.939,157.328 86.939 C 157.657 86.939,157.926 86.760,157.926 86.540 C 157.926 86.321,157.657 86.142,157.328 86.142 C 156.999 86.142,156.730 86.321,156.730 86.540 M245.663 87.737 C 245.663 87.956,245.932 88.136,246.261 88.136 C 246.590 88.136,246.859 87.956,246.859 87.737 C 246.859 87.517,246.590 87.338,246.261 87.338 C 245.932 87.338,245.663 87.517,245.663 87.737 M150.349 88.856 C 150.349 89.034,149.590 89.513,148.662 89.923 C 147.735 90.332,147.217 90.747,147.512 90.846 C 147.807 90.944,148.162 90.858,148.301 90.654 C 148.440 90.450,149.138 90.048,149.850 89.759 C 151.078 89.263,151.611 88.534,150.748 88.534 C 150.528 88.534,150.349 88.679,150.349 88.856 M248.832 89.107 C 249.094 89.422,249.833 89.795,250.476 89.936 C 251.119 90.077,251.645 90.358,251.645 90.560 C 251.645 90.762,251.925 90.927,252.267 90.927 C 253.344 90.927,252.475 90.171,250.831 89.679 C 249.963 89.419,249.252 89.055,249.252 88.870 C 249.252 88.685,249.051 88.534,248.805 88.534 C 248.486 88.534,248.494 88.700,248.832 89.107 M142.302 93.021 C 142.012 93.295,141.012 94.037,140.080 94.670 C 139.148 95.303,138.388 96.021,138.391 96.266 C 138.395 96.575,138.486 96.581,138.690 96.285 C 138.851 96.051,139.826 95.286,140.857 94.585 C 141.888 93.883,142.840 93.133,142.974 92.916 C 143.315 92.365,142.931 92.425,142.302 93.021 M257.228 93.272 C 257.228 93.464,257.767 93.845,258.425 94.118 C 259.083 94.390,259.621 94.771,259.621 94.964 C 259.621 95.156,259.884 95.314,260.205 95.314 C 260.527 95.314,260.982 95.673,261.216 96.112 C 261.451 96.550,261.805 96.909,262.003 96.909 C 262.201 96.909,262.948 97.443,263.662 98.095 C 264.376 98.747,265.058 99.182,265.179 99.062 C 265.299 98.942,265.067 98.658,264.662 98.432 C 264.258 98.206,263.637 97.681,263.281 97.266 C 262.925 96.850,262.405 96.510,262.125 96.510 C 261.844 96.510,261.615 96.334,261.615 96.117 C 261.615 95.901,260.852 95.228,259.920 94.622 C 258.988 94.016,258.166 93.385,258.092 93.220 C 257.907 92.804,257.228 92.845,257.228 93.272 M134.781 98.891 C 133.577 99.922,133.535 100.013,134.457 99.597 C 135.039 99.335,135.713 98.803,135.956 98.414 C 136.561 97.445,136.381 97.518,134.781 98.891 M268.147 101.821 C 268.944 103.100,270.385 104.623,270.597 104.411 C 270.676 104.333,269.999 103.465,269.094 102.483 C 268.072 101.375,267.713 101.124,268.147 101.821 M130.409 102.919 C 128.592 104.952,128.642 104.885,128.927 104.885 C 129.296 104.885,132.004 102.024,132.004 101.634 C 132.004 101.151,131.953 101.192,130.409 102.919 M271.015 105.413 C 271.118 105.680,271.561 106.124,272.001 106.398 C 272.739 106.859,272.762 106.836,272.301 106.098 C 271.740 105.201,270.726 104.660,271.015 105.413 M127.319 106.607 C 126.825 107.332,126.056 108.317,125.608 108.798 C 125.161 109.278,124.915 109.671,125.063 109.671 C 125.456 109.671,127.218 107.701,127.218 107.261 C 127.218 107.055,127.577 106.662,128.016 106.388 C 128.809 105.893,129.086 105.282,128.514 105.287 C 128.350 105.288,127.812 105.882,127.319 106.607 M275.790 111.970 C 276.019 112.131,276.737 113.115,277.385 114.157 C 278.492 115.934,279.163 116.514,279.163 115.696 C 279.163 115.500,278.893 115.236,278.564 115.110 C 278.235 114.984,277.966 114.606,277.966 114.270 C 277.966 113.934,277.815 113.659,277.631 113.659 C 277.447 113.659,277.092 113.210,276.842 112.662 C 276.592 112.114,276.160 111.668,275.881 111.671 C 275.553 111.675,275.521 111.781,275.790 111.970 M123.040 112.831 C 122.896 113.287,122.610 113.659,122.406 113.659 C 122.201 113.659,122.034 113.919,122.034 114.237 C 122.034 114.556,121.788 114.959,121.488 115.135 C 121.188 115.310,120.805 115.894,120.638 116.432 C 120.356 117.337,120.382 117.362,120.984 116.760 C 121.342 116.402,121.635 116.002,121.635 115.872 C 121.635 115.742,122.110 114.918,122.690 114.041 C 123.271 113.164,123.646 112.347,123.524 112.225 C 123.403 112.103,123.185 112.376,123.040 112.831 M304.855 123.629 C 304.855 128.345,304.913 130.274,304.984 127.916 C 305.054 125.558,305.054 121.700,304.984 119.342 C 304.913 116.984,304.855 118.913,304.855 123.629 M279.450 117.647 C 279.543 118.195,279.786 118.704,279.990 118.777 C 280.193 118.850,280.359 119.151,280.359 119.446 C 280.359 119.741,280.605 120.229,280.906 120.530 C 281.206 120.830,281.747 122.090,282.107 123.329 C 282.744 125.520,283.549 126.703,283.549 125.447 C 283.549 125.105,283.388 124.826,283.190 124.826 C 282.993 124.826,282.618 123.937,282.358 122.851 C 282.097 121.765,281.642 120.676,281.347 120.431 C 281.051 120.186,280.693 119.459,280.552 118.816 C 280.411 118.173,280.144 117.647,279.958 117.647 C 279.772 117.647,279.543 117.423,279.449 117.149 C 279.356 116.874,279.356 117.099,279.450 117.647 M119.891 118.329 C 119.753 118.722,119.536 119.267,119.408 119.541 C 119.280 119.816,119.351 120.040,119.565 120.040 C 119.778 120.040,120.071 119.570,120.215 118.996 C 120.518 117.790,120.263 117.267,119.891 118.329 M95.075 127.817 C 95.075 131.107,95.137 132.400,95.212 130.690 C 95.287 128.980,95.286 126.288,95.211 124.708 C 95.136 123.127,95.074 124.526,95.075 127.817 M117.248 124.161 C 117.248 124.526,117.069 124.826,116.849 124.826 C 116.630 124.826,116.451 125.005,116.451 125.224 C 116.451 125.444,116.618 125.623,116.823 125.623 C 117.272 125.623,117.817 124.065,117.484 123.732 C 117.354 123.602,117.248 123.795,117.248 124.161 M114.105 132.528 C 113.453 134.171,113.565 134.786,114.271 133.433 C 114.604 132.793,114.804 132.075,114.715 131.838 C 114.625 131.600,114.351 131.911,114.105 132.528 M285.157 132.104 C 285.150 132.488,285.312 132.802,285.516 132.802 C 285.720 132.802,285.964 133.205,286.060 133.699 C 286.217 134.516,286.237 134.523,286.287 133.775 C 286.317 133.324,286.077 132.606,285.755 132.180 C 285.226 131.479,285.169 131.472,285.157 132.104 M286.358 135.394 C 286.372 136.404,287.503 138.479,287.523 137.533 C 287.531 137.174,287.269 136.367,286.942 135.739 C 286.466 134.826,286.348 134.757,286.358 135.394 M94.417 137.139 C 94.252 137.879,94.142 141.199,94.172 144.516 L 94.225 150.548 94.577 146.959 C 95.000 142.633,94.877 135.068,94.417 137.139 M112.518 138.405 C 112.220 139.077,112.081 139.731,112.208 139.859 C 112.477 140.128,113.342 138.033,113.173 137.524 C 113.110 137.336,112.815 137.732,112.518 138.405 M305.148 143.170 C 305.152 144.816,305.294 147.059,305.465 148.156 C 305.725 149.822,305.780 149.461,305.801 145.962 C 305.815 143.659,305.672 141.416,305.484 140.977 C 305.253 140.440,305.143 141.155,305.148 143.170 M110.867 144.566 C 110.867 144.895,111.047 145.165,111.266 145.165 C 111.486 145.165,111.665 144.895,111.665 144.566 C 111.665 144.237,111.486 143.968,111.266 143.968 C 111.047 143.968,110.867 144.237,110.867 144.566 M289.559 150.226 C 289.618 151.738,290.270 152.656,290.301 151.270 C 290.316 150.570,290.150 149.886,289.930 149.751 C 289.711 149.615,289.544 149.829,289.559 150.226 M109.949 150.506 C 109.786 150.921,109.746 151.355,109.861 151.470 C 110.225 151.833,110.545 151.237,110.392 150.480 C 110.253 149.786,110.231 149.787,109.949 150.506 M109.365 153.938 C 109.365 154.706,109.447 155.020,109.547 154.636 C 109.647 154.252,109.647 153.624,109.547 153.240 C 109.447 152.856,109.365 153.170,109.365 153.938 M290.422 153.938 C 290.422 154.706,290.504 155.020,290.604 154.636 C 290.704 154.252,290.704 153.624,290.604 153.240 C 290.504 152.856,290.422 153.170,290.422 153.938 M290.782 156.929 C 290.743 158.149,291.717 164.232,291.995 164.511 C 292.080 164.596,293.041 164.516,294.130 164.333 L 296.112 164.002 294.064 163.955 L 292.017 163.908 291.792 161.416 C 291.493 158.100,290.837 155.187,290.782 156.929 M108.758 158.325 C 108.592 159.312,108.326 161.017,108.166 162.114 L 107.876 164.108 106.281 164.027 L 104.686 163.946 106.252 164.334 C 108.073 164.786,108.459 164.447,108.468 162.387 C 108.472 161.659,108.664 160.709,108.896 160.276 C 109.128 159.842,109.260 158.822,109.189 158.009 L 109.059 156.530 108.758 158.325 M305.877 159.603 C 305.770 161.073,305.827 162.132,306.004 161.954 C 306.180 161.777,306.268 160.574,306.198 159.280 L 306.072 156.929 305.877 159.603 M96.211 162.588 C 96.595 162.688,97.223 162.688,97.607 162.588 C 97.991 162.488,97.677 162.406,96.909 162.406 C 96.142 162.406,95.828 162.488,96.211 162.588 M99.538 163.107 C 99.755 163.324,100.733 163.571,101.711 163.655 C 102.689 163.740,103.041 163.728,102.493 163.628 C 101.944 163.529,101.325 163.282,101.117 163.080 C 100.908 162.878,100.379 162.712,99.940 162.712 C 99.414 162.712,99.277 162.846,99.538 163.107 M298.883 163.080 C 298.675 163.282,298.056 163.529,297.507 163.628 C 296.959 163.728,297.311 163.740,298.289 163.655 C 300.107 163.498,301.583 162.712,300.060 162.712 C 299.621 162.712,299.092 162.878,298.883 163.080 M147.159 215.952 L 147.159 242.074 120.615 242.074 C 103.020 242.074,94.154 242.208,94.317 242.473 C 94.700 243.092,146.856 243.014,147.478 242.393 C 148.100 241.771,148.178 189.831,147.557 189.831 C 147.296 189.831,147.159 198.804,147.159 215.952 M253.107 190.096 C 252.400 190.804,252.822 241.772,253.539 242.316 C 254.419 242.984,306.281 243.138,306.281 242.473 C 306.281 242.211,297.240 242.074,279.954 242.074 L 253.628 242.074 253.733 215.952 C 253.791 201.585,253.734 189.830,253.606 189.830 C 253.478 189.830,253.254 189.950,253.107 190.096 M178.788 288.534 C 178.790 289.850,178.864 290.341,178.953 289.624 C 179.042 288.907,179.040 287.830,178.949 287.231 C 178.858 286.632,178.785 287.218,178.788 288.534 M221.178 290.528 C 221.288 292.064,221.569 293.500,221.802 293.719 C 222.232 294.123,222.204 293.866,221.338 289.531 C 221.031 287.996,221.008 288.140,221.178 290.528 M177.894 292.423 C 177.918 293.509,177.978 293.590,178.265 292.921 C 178.739 291.819,178.739 291.127,178.265 291.127 C 178.046 291.127,177.879 291.710,177.894 292.423 M176.670 297.308 C 176.670 297.637,176.849 297.906,177.069 297.906 C 177.288 297.906,177.468 297.637,177.468 297.308 C 177.468 296.979,177.288 296.710,177.069 296.710 C 176.849 296.710,176.670 296.979,176.670 297.308 M175.904 300.602 C 175.887 300.879,175.248 301.993,174.485 303.079 C 173.721 304.165,173.318 304.962,173.587 304.850 C 174.337 304.539,176.363 301.158,176.136 300.596 C 175.978 300.204,175.929 300.205,175.904 300.602 M223.729 301.296 C 223.729 301.625,223.908 301.894,224.128 301.894 C 224.347 301.894,224.527 302.119,224.528 302.393 C 224.529 302.667,224.998 303.430,225.569 304.088 C 226.352 304.990,226.451 305.039,225.974 304.287 C 225.625 303.739,225.047 302.707,224.688 301.994 C 223.971 300.567,223.729 300.391,223.729 301.296 M171.872 306.511 C 171.550 306.857,170.486 307.845,169.507 308.705 C 168.529 309.565,167.940 310.269,168.197 310.269 C 168.455 310.269,168.858 309.910,169.093 309.472 C 169.327 309.033,169.689 308.674,169.897 308.674 C 170.105 308.674,170.921 308.046,171.712 307.278 C 172.502 306.510,172.994 305.882,172.803 305.882 C 172.613 305.882,172.194 306.165,171.872 306.511 M228.116 307.478 C 230.698 309.787,230.907 309.941,230.907 309.542 C 230.907 309.343,230.189 308.684,229.312 308.076 C 228.435 307.468,227.717 306.834,227.717 306.668 C 227.717 306.502,227.403 306.256,227.019 306.120 C 226.635 305.985,227.129 306.596,228.116 307.478 M233.699 311.024 C 233.699 311.439,235.683 312.007,236.006 311.684 C 236.126 311.564,235.926 311.466,235.560 311.466 C 235.194 311.466,234.895 311.286,234.895 311.067 C 234.895 310.847,234.626 310.668,234.297 310.668 C 233.968 310.668,233.699 310.828,233.699 311.024 M163.210 311.747 C 162.717 311.842,162.313 312.087,162.313 312.291 C 162.313 312.495,161.909 312.683,161.416 312.708 C 160.784 312.741,160.717 312.807,161.189 312.932 C 161.558 313.029,162.635 312.746,163.582 312.302 C 165.236 311.527,165.135 311.376,163.210 311.747 M237.488 312.477 C 238.146 312.778,239.043 313.025,239.482 313.025 C 239.920 313.026,239.561 312.767,238.684 312.451 C 236.682 311.730,235.893 311.747,237.488 312.477 M156.530 313.670 L 154.935 314.196 156.351 314.227 C 157.130 314.243,157.937 314.095,158.146 313.897 C 158.354 313.699,158.883 313.451,159.322 313.345 C 159.955 313.193,159.914 313.152,159.123 313.149 C 158.574 313.146,157.408 313.381,156.530 313.670 M241.675 313.659 C 242.443 313.955,243.519 314.198,244.068 314.200 C 244.750 314.203,244.499 314.026,243.270 313.638 C 241.007 312.925,239.810 312.941,241.675 313.659 M149.252 314.548 C 150.075 314.634,151.421 314.634,152.243 314.548 C 153.066 314.462,152.393 314.391,150.748 314.391 C 149.103 314.391,148.430 314.462,149.252 314.548 M246.959 314.543 C 247.562 314.634,248.549 314.634,249.153 314.543 C 249.756 314.451,249.262 314.377,248.056 314.377 C 246.849 314.377,246.356 314.451,246.959 314.543 M136.491 315.253 C 135.863 315.965,135.768 329.811,136.391 329.811 C 136.642 329.811,136.790 327.152,136.790 322.632 L 136.790 315.454 140.355 315.454 C 142.316 315.454,144.032 315.274,144.167 315.055 C 144.584 314.381,137.088 314.574,136.491 315.253 M253.838 315.055 C 253.981 315.285,256.103 315.454,258.847 315.454 L 263.609 315.454 263.699 322.732 L 263.788 330.010 263.912 323.230 C 264.084 313.817,264.605 314.656,258.593 314.656 C 255.361 314.656,253.679 314.797,253.838 315.055 " stroke="none" fill="#ea3d9a" fill-rule="evenodd"></path></g></svg>